<?xml version="1.0" encoding="UTF-8" standalone="no"?>
<!DOCTYPE svg PUBLIC "-//W3C//DTD SVG 1.1//EN"
 "http://www.w3.org/Graphics/SVG/1.1/DTD/svg11.dtd">
<!-- Generated by graphviz version 2.40.1 (20161225.0304)
 -->
<!-- Title: %3 Pages: 1 -->
<svg width="919pt" height="404pt"
 viewBox="0.00 0.00 919.46 404.00" xmlns="http://www.w3.org/2000/svg" xmlns:xlink="http://www.w3.org/1999/xlink">
<g id="graph0" class="graph" transform="scale(1 1) rotate(0) translate(4 400)">
<title>%3</title>
<polygon fill="#ffffff" stroke="transparent" points="-4,4 -4,-400 915.4556,-400 915.4556,4 -4,4"/>
<!-- [root] aws_instance.secondserver -->
<g id="node1" class="node">
<title>[root] aws_instance.secondserver</title>
<polygon fill="none" stroke="#000000" points="544.9059,-252 377.4701,-252 377.4701,-216 544.9059,-216 544.9059,-252"/>
<text text-anchor="middle" x="461.188" y="-229.8" font-family="Times,serif" font-size="14.00" fill="#000000">aws_instance.secondserver</text>
</g>
<!-- [root] aws_subnet.subnet2 -->
<g id="node4" class="node">
<title>[root] aws_subnet.subnet2</title>
<polygon fill="none" stroke="#000000" points="418.5645,-180 289.8115,-180 289.8115,-144 418.5645,-144 418.5645,-180"/>
<text text-anchor="middle" x="354.188" y="-157.8" font-family="Times,serif" font-size="14.00" fill="#000000">aws_subnet.subnet2</text>
</g>
<!-- [root] aws_instance.secondserver&#45;&gt;[root] aws_subnet.subnet2 -->
<g id="edge1" class="edge">
<title>[root] aws_instance.secondserver&#45;&gt;[root] aws_subnet.subnet2</title>
<path fill="none" stroke="#000000" d="M434.1874,-215.8314C420.7549,-206.7927 404.3407,-195.7476 389.8841,-186.0198"/>
<polygon fill="#000000" stroke="#000000" points="391.4305,-182.8418 381.18,-180.1628 387.5226,-188.6494 391.4305,-182.8418"/>
</g>
<!-- [root] data.aws_ami.ubuntu -->
<g id="node6" class="node">
<title>[root] data.aws_ami.ubuntu</title>
<polygon fill="none" stroke="#000000" points="520.6606,-108 385.7153,-108 385.7153,-72 520.6606,-72 520.6606,-108"/>
<text text-anchor="middle" x="453.188" y="-85.8" font-family="Times,serif" font-size="14.00" fill="#000000">data.aws_ami.ubuntu</text>
</g>
<!-- [root] aws_instance.secondserver&#45;&gt;[root] data.aws_ami.ubuntu -->
<g id="edge2" class="edge">
<title>[root] aws_instance.secondserver&#45;&gt;[root] data.aws_ami.ubuntu</title>
<path fill="none" stroke="#000000" d="M460.1748,-215.7623C458.8103,-191.201 456.3684,-147.2474 454.7632,-118.3541"/>
<polygon fill="#000000" stroke="#000000" points="458.2424,-117.88 454.193,-108.0896 451.2531,-118.2684 458.2424,-117.88"/>
</g>
<!-- [root] aws_security_group.subnetsecurity -->
<g id="node2" class="node">
<title>[root] aws_security_group.subnetsecurity</title>
<polygon fill="none" stroke="#000000" points="359.8091,-252 146.5669,-252 146.5669,-216 359.8091,-216 359.8091,-252"/>
<text text-anchor="middle" x="253.188" y="-229.8" font-family="Times,serif" font-size="14.00" fill="#000000">aws_security_group.subnetsecurity</text>
</g>
<!-- [root] aws_vpc.environment&#45;example&#45;two -->
<g id="node5" class="node">
<title>[root] aws_vpc.environment&#45;example&#45;two</title>
<polygon fill="none" stroke="#000000" points="365.6782,-108 148.6978,-108 148.6978,-72 365.6782,-72 365.6782,-108"/>
<text text-anchor="middle" x="257.188" y="-85.8" font-family="Times,serif" font-size="14.00" fill="#000000">aws_vpc.environment&#45;example&#45;two</text>
</g>
<!-- [root] aws_security_group.subnetsecurity&#45;&gt;[root] aws_vpc.environment&#45;example&#45;two -->
<g id="edge3" class="edge">
<title>[root] aws_security_group.subnetsecurity&#45;&gt;[root] aws_vpc.environment&#45;example&#45;two</title>
<path fill="none" stroke="#000000" d="M253.6946,-215.7623C254.3768,-191.201 255.5978,-147.2474 256.4004,-118.3541"/>
<polygon fill="#000000" stroke="#000000" points="259.9064,-118.183 256.6855,-108.0896 252.9091,-117.9885 259.9064,-118.183"/>
</g>
<!-- [root] aws_subnet.subnet1 -->
<g id="node3" class="node">
<title>[root] aws_subnet.subnet1</title>
<polygon fill="none" stroke="#000000" points="128.5645,-252 -.1885,-252 -.1885,-216 128.5645,-216 128.5645,-252"/>
<text text-anchor="middle" x="64.188" y="-229.8" font-family="Times,serif" font-size="14.00" fill="#000000">aws_subnet.subnet1</text>
</g>
<!-- [root] aws_subnet.subnet1&#45;&gt;[root] aws_vpc.environment&#45;example&#45;two -->
<g id="edge4" class="edge">
<title>[root] aws_subnet.subnet1&#45;&gt;[root] aws_vpc.environment&#45;example&#45;two</title>
<path fill="none" stroke="#000000" d="M88.6316,-215.7623C123.1457,-190.0108 186.2309,-142.942 224.6679,-114.2637"/>
<polygon fill="#000000" stroke="#000000" points="227.021,-116.8749 232.9429,-108.0896 222.8349,-111.2645 227.021,-116.8749"/>
</g>
<!-- [root] aws_subnet.subnet2&#45;&gt;[root] aws_vpc.environment&#45;example&#45;two -->
<g id="edge5" class="edge">
<title>[root] aws_subnet.subnet2&#45;&gt;[root] aws_vpc.environment&#45;example&#45;two</title>
<path fill="none" stroke="#000000" d="M329.7108,-143.8314C317.6485,-134.8779 302.934,-123.9558 289.9194,-114.2955"/>
<polygon fill="#000000" stroke="#000000" points="291.7732,-111.3127 281.6574,-108.1628 287.601,-116.9335 291.7732,-111.3127"/>
</g>
<!-- [root] provider.aws -->
<g id="node8" class="node">
<title>[root] provider.aws</title>
<polygon fill="none" stroke="#000000" points="354.188,-36 275.5797,-18 354.188,0 432.7963,-18 354.188,-36"/>
<text text-anchor="middle" x="354.188" y="-13.8" font-family="Times,serif" font-size="14.00" fill="#000000">provider.aws</text>
</g>
<!-- [root] aws_vpc.environment&#45;example&#45;two&#45;&gt;[root] provider.aws -->
<g id="edge6" class="edge">
<title>[root] aws_vpc.environment&#45;example&#45;two&#45;&gt;[root] provider.aws</title>
<path fill="none" stroke="#000000" d="M281.6652,-71.8314C295.5155,-61.5507 312.8627,-48.6744 327.1181,-38.0931"/>
<polygon fill="#000000" stroke="#000000" points="329.592,-40.6157 335.5357,-31.845 325.4199,-34.9949 329.592,-40.6157"/>
</g>
<!-- [root] data.aws_ami.ubuntu&#45;&gt;[root] provider.aws -->
<g id="edge7" class="edge">
<title>[root] data.aws_ami.ubuntu&#45;&gt;[root] provider.aws</title>
<path fill="none" stroke="#000000" d="M428.2061,-71.8314C413.9368,-61.4537 396.031,-48.4313 381.4051,-37.7943"/>
<polygon fill="#000000" stroke="#000000" points="383.3709,-34.8962 373.2249,-31.845 379.2537,-40.5574 383.3709,-34.8962"/>
</g>
<!-- [root] google_compute_network.our_development_network -->
<g id="node7" class="node">
<title>[root] google_compute_network.our_development_network</title>
<polygon fill="none" stroke="#000000" points="911.2235,-252 595.1525,-252 595.1525,-216 911.2235,-216 911.2235,-252"/>
<text text-anchor="middle" x="753.188" y="-229.8" font-family="Times,serif" font-size="14.00" fill="#000000">google_compute_network.our_development_network</text>
</g>
<!-- [root] provider.google -->
<g id="node9" class="node">
<title>[root] provider.google</title>
<polygon fill="none" stroke="#000000" points="753.188,-180 659.9016,-162 753.188,-144 846.4744,-162 753.188,-180"/>
<text text-anchor="middle" x="753.188" y="-157.8" font-family="Times,serif" font-size="14.00" fill="#000000">provider.google</text>
</g>
<!-- [root] google_compute_network.our_development_network&#45;&gt;[root] provider.google -->
<g id="edge8" class="edge">
<title>[root] google_compute_network.our_development_network&#45;&gt;[root] provider.google</title>
<path fill="none" stroke="#000000" d="M753.188,-215.8314C753.188,-208.131 753.188,-198.9743 753.188,-190.4166"/>
<polygon fill="#000000" stroke="#000000" points="756.6881,-190.4132 753.188,-180.4133 749.6881,-190.4133 756.6881,-190.4132"/>
</g>
<!-- [root] meta.count&#45;boundary (count boundary fixup) -->
<g id="node10" class="node">
<title>[root] meta.count&#45;boundary (count boundary fixup)</title>
<ellipse fill="none" stroke="#000000" cx="445.188" cy="-306" rx="191.6931" ry="18"/>
<text text-anchor="middle" x="445.188" y="-301.8" font-family="Times,serif" font-size="14.00" fill="#000000">[root] meta.count&#45;boundary (count boundary fixup)</text>
</g>
<!-- [root] meta.count&#45;boundary (count boundary fixup)&#45;&gt;[root] aws_instance.secondserver -->
<g id="edge9" class="edge">
<title>[root] meta.count&#45;boundary (count boundary fixup)&#45;&gt;[root] aws_instance.secondserver</title>
<path fill="none" stroke="#000000" d="M449.2255,-287.8314C450.9367,-280.131 452.9715,-270.9743 454.8732,-262.4166"/>
<polygon fill="#000000" stroke="#000000" points="458.3434,-262.9344 457.0962,-252.4133 451.5101,-261.4159 458.3434,-262.9344"/>
</g>
<!-- [root] meta.count&#45;boundary (count boundary fixup)&#45;&gt;[root] aws_security_group.subnetsecurity -->
<g id="edge10" class="edge">
<title>[root] meta.count&#45;boundary (count boundary fixup)&#45;&gt;[root] aws_security_group.subnetsecurity</title>
<path fill="none" stroke="#000000" d="M398.2195,-288.3868C371.9025,-278.518 338.8657,-266.1291 310.9727,-255.6693"/>
<polygon fill="#000000" stroke="#000000" points="311.9328,-252.2914 301.3405,-252.0572 309.4749,-258.8457 311.9328,-252.2914"/>
</g>
<!-- [root] meta.count&#45;boundary (count boundary fixup)&#45;&gt;[root] aws_subnet.subnet1 -->
<g id="edge11" class="edge">
<title>[root] meta.count&#45;boundary (count boundary fixup)&#45;&gt;[root] aws_subnet.subnet1</title>
<path fill="none" stroke="#000000" d="M346.7218,-290.4932C288.7044,-280.9402 213.6811,-267.8707 138.7154,-252.2582"/>
<polygon fill="#000000" stroke="#000000" points="139.1255,-248.7681 128.6199,-250.14 137.6881,-255.619 139.1255,-248.7681"/>
</g>
<!-- [root] meta.count&#45;boundary (count boundary fixup)&#45;&gt;[root] google_compute_network.our_development_network -->
<g id="edge12" class="edge">
<title>[root] meta.count&#45;boundary (count boundary fixup)&#45;&gt;[root] google_compute_network.our_development_network</title>
<path fill="none" stroke="#000000" d="M517.0116,-289.2101C561.5699,-278.7938 619.1087,-265.3432 666.2371,-254.3262"/>
<polygon fill="#000000" stroke="#000000" points="667.1867,-257.6986 676.1274,-252.0142 665.5932,-250.8824 667.1867,-257.6986"/>
</g>
<!-- [root] provider.aws (close) -->
<g id="node11" class="node">
<title>[root] provider.aws (close)</title>
<ellipse fill="none" stroke="#000000" cx="131.188" cy="-306" rx="104.3276" ry="18"/>
<text text-anchor="middle" x="131.188" y="-301.8" font-family="Times,serif" font-size="14.00" fill="#000000">[root] provider.aws (close)</text>
</g>
<!-- [root] provider.aws (close)&#45;&gt;[root] aws_instance.secondserver -->
<g id="edge13" class="edge">
<title>[root] provider.aws (close)&#45;&gt;[root] aws_instance.secondserver</title>
<path fill="none" stroke="#000000" d="M195.9916,-291.861C245.2043,-281.1237 313.5556,-266.2107 368.5402,-254.2141"/>
<polygon fill="#000000" stroke="#000000" points="369.6198,-257.5609 378.6439,-252.0096 368.1276,-250.7218 369.6198,-257.5609"/>
</g>
<!-- [root] provider.aws (close)&#45;&gt;[root] aws_security_group.subnetsecurity -->
<g id="edge14" class="edge">
<title>[root] provider.aws (close)&#45;&gt;[root] aws_security_group.subnetsecurity</title>
<path fill="none" stroke="#000000" d="M160.7208,-288.5708C176.6947,-279.1436 196.633,-267.3767 213.9014,-257.1855"/>
<polygon fill="#000000" stroke="#000000" points="215.8199,-260.1174 222.6531,-252.0206 212.2621,-254.0889 215.8199,-260.1174"/>
</g>
<!-- [root] provider.aws (close)&#45;&gt;[root] aws_subnet.subnet1 -->
<g id="edge15" class="edge">
<title>[root] provider.aws (close)&#45;&gt;[root] aws_subnet.subnet1</title>
<path fill="none" stroke="#000000" d="M114.6262,-288.2022C106.5538,-279.5275 96.7008,-268.9391 87.8524,-259.4304"/>
<polygon fill="#000000" stroke="#000000" points="90.3992,-257.0295 81.0246,-252.0931 85.2747,-261.7982 90.3992,-257.0295"/>
</g>
<!-- [root] provider.google (close) -->
<g id="node12" class="node">
<title>[root] provider.google (close)</title>
<ellipse fill="none" stroke="#000000" cx="769.188" cy="-306" rx="114.4592" ry="18"/>
<text text-anchor="middle" x="769.188" y="-301.8" font-family="Times,serif" font-size="14.00" fill="#000000">[root] provider.google (close)</text>
</g>
<!-- [root] provider.google (close)&#45;&gt;[root] google_compute_network.our_development_network -->
<g id="edge16" class="edge">
<title>[root] provider.google (close)&#45;&gt;[root] google_compute_network.our_development_network</title>
<path fill="none" stroke="#000000" d="M765.1505,-287.8314C763.4393,-280.131 761.4045,-270.9743 759.5028,-262.4166"/>
<polygon fill="#000000" stroke="#000000" points="762.8659,-261.4159 757.2798,-252.4133 756.0326,-262.9344 762.8659,-261.4159"/>
</g>
<!-- [root] root -->
<g id="node13" class="node">
<title>[root] root</title>
<ellipse fill="none" stroke="#000000" cx="445.188" cy="-378" rx="46.8976" ry="18"/>
<text text-anchor="middle" x="445.188" y="-373.8" font-family="Times,serif" font-size="14.00" fill="#000000">[root] root</text>
</g>
<!-- [root] root&#45;&gt;[root] meta.count&#45;boundary (count boundary fixup) -->
<g id="edge17" class="edge">
<title>[root] root&#45;&gt;[root] meta.count&#45;boundary (count boundary fixup)</title>
<path fill="none" stroke="#000000" d="M445.188,-359.8314C445.188,-352.131 445.188,-342.9743 445.188,-334.4166"/>
<polygon fill="#000000" stroke="#000000" points="448.6881,-334.4132 445.188,-324.4133 441.6881,-334.4133 448.6881,-334.4132"/>
</g>
<!-- [root] root&#45;&gt;[root] provider.aws (close) -->
<g id="edge18" class="edge">
<title>[root] root&#45;&gt;[root] provider.aws (close)</title>
<path fill="none" stroke="#000000" d="M404.7808,-368.7347C354.0753,-357.1079 266.1991,-336.958 203.7268,-322.6331"/>
<polygon fill="#000000" stroke="#000000" points="204.4574,-319.2099 193.9281,-320.3863 202.8929,-326.0328 204.4574,-319.2099"/>
</g>
<!-- [root] root&#45;&gt;[root] provider.google (close) -->
<g id="edge19" class="edge">
<title>[root] root&#45;&gt;[root] provider.google (close)</title>
<path fill="none" stroke="#000000" d="M485.8947,-368.9541C537.7073,-357.4402 628.2519,-337.3191 693.0372,-322.9224"/>
<polygon fill="#000000" stroke="#000000" points="693.7995,-326.3385 702.802,-320.7524 692.2809,-319.5052 693.7995,-326.3385"/>
</g>
</g>
</svg>
